<?xml version="1.0" encoding="UTF-8" standalone="no"?>
<!-- Created with Inkscape (http://www.inkscape.org/) -->

<svg
   version="1.1"
   id="svg1"
   width="949.81818"
   height="394.90909"
   viewBox="0 0 949.81818 394.90909"
   sodipodi:docname="HCC_Logo.svg"
   inkscape:version="1.4 (e7c3feb1, 2024-10-09)"
   inkscape:export-filename="HCC_Logo.png"
   inkscape:export-xdpi="300"
   inkscape:export-ydpi="300"
   xmlns:inkscape="http://www.inkscape.org/namespaces/inkscape"
   xmlns:sodipodi="http://sodipodi.sourceforge.net/DTD/sodipodi-0.dtd"
   xmlns="http://www.w3.org/2000/svg"
   xmlns:svg="http://www.w3.org/2000/svg">
  <defs
     id="defs1" />
  <sodipodi:namedview
     id="namedview1"
     pagecolor="#505050"
     bordercolor="#eeeeee"
     borderopacity="1"
     inkscape:showpageshadow="0"
     inkscape:pageopacity="0"
     inkscape:pagecheckerboard="0"
     inkscape:deskcolor="#505050"
     inkscape:zoom="1.1117917"
     inkscape:cx="481.65496"
     inkscape:cy="193.83127"
     inkscape:window-width="1712"
     inkscape:window-height="1322"
     inkscape:window-x="2290"
     inkscape:window-y="25"
     inkscape:window-maximized="0"
     inkscape:current-layer="g1"
     inkscape:export-bgcolor="#00000000" />
  <g
     inkscape:groupmode="layer"
     inkscape:label="Image"
     id="g1">
    <path
       style="fill:#000000;stroke-width:1.05349"
       d="m 311.84843,392.5816 c -0.96676,-0.97538 -1.37186,-30.07301 -0.45233,-32.49062 0.55391,-1.45636 4.89488,-1.66046 6.24942,-0.29382 0.63469,0.64036 0.91533,4.65213 0.91533,13.08485 v 12.16133 l 155.79681,-0.19425 155.79682,-0.19425 0.38138,-60.41264 0.38139,-60.41263 h 3.4325 3.43247 l 0.19513,63.79154 c 0.1422,46.49044 -0.0382,64.0753 -0.66548,64.83776 -1.19642,1.45449 -324.02282,1.57622 -325.46344,0.12273 z M 147.2886,351.75765 c -0.20063,-0.53057 -0.27614,-29.53562 -0.16778,-64.45566 l 0.19701,-63.49099 2.735,-0.23131 c 1.6575,-0.14018 3.08305,0.19182 3.61846,0.84268 0.64883,0.78879 0.93534,16.89316 1.07887,60.64395 l 0.19542,59.56996 h 99.16076 99.16077 l 0.38138,-40.40336 0.38139,-40.40335 3.6294,-0.23482 3.62939,-0.23482 -0.19689,44.48611 -0.19692,44.48612 -106.62074,0.19508 c -84.89466,0.15533 -106.69507,-0.001 -106.98552,-0.76959 z m 164.01087,-14.58027 c -0.21032,-0.5536 -0.29301,-17.28335 -0.18371,-37.17719 l 0.19872,-36.17062 h 3.43249 3.43249 V 300.76979 337.71 l -3.24877,0.23699 c -2.15246,0.15701 -3.37783,-0.10266 -3.63122,-0.76961 z m 276.52098,-56.07426 v -17.74269 l 3.62318,0.23457 3.62319,0.23457 0.20829,13.66019 0.2083,13.66018 h 12.99973 c 7.50234,0 13.62364,0.33689 14.47512,0.79666 1.46347,0.79022 1.91311,3.31373 1.0124,5.68188 -0.40393,1.06204 -2.73921,1.21732 -18.30659,1.21732 h -17.84362 z m 56.95744,17.23322 c -0.85617,-0.86383 -0.57189,-5.27905 0.40326,-6.26291 0.69938,-0.70561 18.42525,-0.92349 75.13335,-0.92349 h 74.21801 v -32.93836 c 0,-24.59261 0.23192,-33.17236 0.91533,-33.86187 1.03735,-1.0466 4.3234,-1.2087 5.76643,-0.28444 0.75548,0.48388 0.91858,8.50379 0.76278,37.50562 l -0.19817,36.89012 -78.24446,0.19599 c -43.03444,0.1078 -78.47488,-0.0365 -78.75653,-0.32066 z m -56.83552,-56.0866 c -2.61797,-1.92197 -5.11713,-4.43276 -5.55369,-5.57951 -3.14091,-8.25063 7.0091,-15.61895 13.07915,-9.49469 3.94597,3.98123 3.92758,8.14347 -0.0563,12.72132 -1.37274,1.57743 -1.98447,2.84484 -1.51452,3.13787 1.12631,0.70231 0.97579,2.70953 -0.20317,2.70953 -0.54535,0 -3.13353,-1.57253 -5.75152,-3.49452 z m 4.14985,-2.48158 c 3.62862,-2.44453 3.21746,-11.70188 -0.57365,-12.91587 -2.15128,-0.6889 -4.1347,0.2418 -5.10791,2.39683 -2.16,4.78303 -0.0577,11.08444 3.69813,11.08444 0.62929,0 1.52183,-0.25442 1.98343,-0.5654 z m -404.64423,0.15779 c -5.65552,-4.8013 -2.36321,-15.05942 4.78574,-14.91134 l 2.37616,0.0492 -2.49165,1.25083 c -5.00471,2.51239 -5.20494,10.64329 -0.3328,13.51419 3.46362,2.04094 5.03647,0.71368 4.52972,-3.82241 -0.27496,-2.46124 -0.0773,-3.36782 0.80923,-3.71104 1.85636,-0.71871 2.78366,0.88359 2.55511,4.41507 -0.26244,4.05503 -1.63644,5.18585 -6.30103,5.18585 -2.76001,0 -4.15583,-0.46375 -5.93048,-1.97036 z m 28.85523,1.51233 c -0.0251,-0.17136 -0.0655,-3.86128 -0.0896,-8.19983 l -0.0439,-7.88827 5.17752,0.008 c 3.59895,0.005 5.27959,0.31713 5.51238,1.02174 0.26078,0.78933 -0.44122,0.89622 -3.17211,0.48305 -3.93951,-0.59605 -4.8576,0.32274 -3.95364,3.95658 0.40655,1.63432 0.80769,1.90817 2.17989,1.48818 2.98337,-0.91311 3.96998,-0.82526 3.96998,0.35343 0,0.76894 -0.76407,1.15537 -2.28834,1.15733 -3.01794,0.004 -4.19526,0.85325 -4.19526,3.02659 0,2.86151 1.73623,3.81517 4.97964,2.73519 2.97757,-0.99147 4.25397,-0.53567 2.74996,0.982 -0.84122,0.84885 -10.71311,1.64754 -10.82645,0.87591 z m 27.47161,0.26564 c -0.0187,-0.10582 -0.10457,-3.91548 -0.19069,-8.46589 -0.19484,-10.29141 0.46291,-10.55682 6.67434,-2.69313 1.58812,2.01055 3.18937,3.65554 3.55837,3.65554 0.36898,0 0.67088,-2.10328 0.67088,-4.67396 0,-3.99501 0.18943,-4.63715 1.30401,-4.42058 1.1398,0.22146 1.27645,1.1734 1.08517,7.55992 -0.12034,4.01858 -0.56583,7.65284 -0.98996,8.07611 -0.51649,0.51544 -1.69354,-0.35921 -3.5642,-2.64852 -1.53618,-1.87997 -3.55451,-4.30417 -4.48519,-5.38711 l -1.69215,-1.969 -0.0241,5.57951 c -0.0192,4.43569 -0.25866,5.5795 -1.16827,5.5795 -0.62929,0 -1.15948,-0.0866 -1.17821,-0.19239 z m 29.78229,-8.30958 v -8.43181 l 4.76734,0.20993 c 4.9135,0.21637 7.01248,0.92697 6.27833,2.12545 -0.2423,0.39557 -1.28662,0.3549 -2.46169,-0.0959 -1.12247,-0.43058 -2.78406,-0.59466 -3.69241,-0.36465 -1.42007,0.35961 -1.57795,0.77009 -1.12638,2.92864 0.48999,2.34221 0.71364,2.49529 3.33802,2.28472 2.19873,-0.17644 2.81286,0.0522 2.81286,1.04763 0,1.03892 -0.49247,1.18013 -2.67507,0.76701 -2.3939,-0.45311 -2.75469,-0.29504 -3.4326,1.50391 -0.51826,1.3753 -0.49434,2.50638 0.0757,3.58104 0.83675,1.57745 2.61385,1.63217 6.30002,0.194 1.10306,-0.43035 1.35257,-0.23841 1.1397,0.87678 -0.23135,1.21204 -1.10736,1.45625 -5.79818,1.61639 l -5.52564,0.18864 z m 27.4599,0.0901 v -8.51901 h 3.64415 c 4.53628,0 7.03469,1.62198 7.03469,4.56694 0,1.19399 -0.51487,2.60201 -1.14416,3.12894 -1.65573,1.38641 -1.42962,2.42 1.15366,5.27359 1.26381,1.39604 2.10167,2.85849 1.86193,3.24987 -0.90699,1.48064 -2.62432,0.59801 -5.33833,-2.74366 -1.54343,-1.9004 -3.12249,-3.25808 -3.50899,-3.01707 -0.3865,0.241 -0.60547,1.70929 -0.4866,3.26285 0.18538,2.42272 -0.0281,2.85968 -1.50011,3.07061 -1.69113,0.24232 -1.71624,0.12124 -1.71624,-8.27306 z m 6.15235,-1.61979 c 1.83897,-0.99298 1.91913,-3.53645 0.14055,-4.45939 -2.01457,-1.04536 -3.2418,-0.24524 -3.2418,2.11357 0,3.12158 0.69332,3.64601 3.10125,2.34582 z m 21.78437,9.41792 c -0.2068,-0.3376 0.71688,-2.84838 2.05262,-5.57952 1.33572,-2.73114 2.82785,-6.09123 3.31581,-7.46687 0.48797,-1.37563 1.34952,-2.50115 1.91456,-2.50115 0.9466,0 6.6639,11.98164 6.9773,14.62217 0.22125,1.86419 -3.59394,1.4915 -3.9392,-0.3848 -0.44177,-2.40082 -1.64821,-3.46316 -3.93293,-3.46316 -2.03603,0 -3.98941,1.46099 -3.75032,2.80495 0.28742,1.61556 -0.14785,2.58217 -1.1627,2.58217 -0.60453,0 -1.26834,-0.27621 -1.47514,-0.61379 z m 7.77606,-7.98378 c -0.35933,-2.46383 -2.15068,-2.72771 -2.15068,-0.31682 0,1.29331 0.41842,1.98811 1.19722,1.98811 0.79506,0 1.11534,-0.56139 0.95346,-1.67129 z m 24.29219,8.08452 c -0.27968,-0.2822 -0.50851,-3.57218 -0.50851,-7.3111 v -6.79802 h -2.76311 c -2.36962,0 -2.62788,-0.1644 -1.81355,-1.15438 1.10962,-1.34896 12.96719,-1.70082 12.96719,-0.3848 0,0.42328 0.0349,1.02932 0.0777,1.34678 0.0427,0.31745 -0.98701,0.46451 -2.28833,0.3268 l -2.36603,-0.2504 v 7.36908 c 0,6.63273 -0.13973,7.36908 -1.39842,7.36908 -0.76913,0 -1.62725,-0.23087 -1.90694,-0.51306 z m 23.85452,0.18179 c -0.0251,-0.24108 -0.0663,-3.98805 -0.0916,-8.3266 -0.0445,-7.67067 10e-4,-7.88827 1.66284,-7.88827 1.66089,0 1.70873,0.22568 1.71265,8.08067 0.004,7.65076 -0.0822,8.09376 -1.61709,8.3266 -0.89161,0.13525 -1.64171,0.0487 -1.66688,-0.1924 z m 21.42053,-1.95906 c -5.44936,-5.88568 -2.02431,-14.64061 5.72761,-14.64061 2.76606,0 3.60348,0.4055 5.61793,2.72033 3.40107,3.9082 3.32098,8.01527 -0.22608,11.59401 -2.12585,2.14484 -3.17088,2.61659 -5.79617,2.61659 -2.56932,0 -3.62211,-0.45295 -5.32329,-2.29032 z m 9.11876,-1.52466 c 0.42914,-0.80901 0.78026,-3.06786 0.78026,-5.01966 0,-2.74146 -0.42582,-3.97834 -1.87188,-5.43732 -1.63361,-1.64821 -2.1196,-1.77473 -3.81795,-0.994 -3.87629,1.78192 -4.26736,10.06297 -0.61223,12.96377 2.10575,1.67117 4.12656,1.11755 5.5218,-1.51279 z m 20.51124,3.30193 c -0.0555,-0.35273 -0.14146,-3.23868 -0.1907,-6.41323 -0.0491,-3.17455 -0.38416,-6.72428 -0.74429,-7.88828 -0.57131,-1.84659 -0.45059,-2.11637 0.94697,-2.11637 1.04439,0 2.99458,1.71693 5.60442,4.93407 2.20147,2.71373 4.29312,4.75295 4.64811,4.5316 0.35498,-0.22135 0.53036,-2.35509 0.38976,-4.74166 -0.20376,-3.45865 -0.0235,-4.33921 0.88853,-4.33921 0.62929,0 1.10984,0.43289 1.06788,0.96199 -0.0419,0.52908 -0.12776,4.07882 -0.19069,7.88827 -0.0824,4.99249 -0.38062,6.91429 -1.06789,6.88331 -0.5244,-0.0236 -2.6697,-2.23518 -4.76734,-4.91454 -2.09762,-2.67937 -4.10069,-4.69916 -4.45122,-4.48844 -0.35055,0.21072 -0.52216,2.4797 -0.3814,5.04217 0.17777,3.23563 -0.0353,4.75719 -0.6975,4.98033 -0.52441,0.17672 -0.99899,0.0327 -1.05464,-0.32001 z m 29.4231,-0.58952 c -1.11372,-0.82934 -1.26458,-1.32387 -0.6087,-1.99561 0.66071,-0.67673 1.34452,-0.58061 2.82304,0.3968 2.29366,1.51628 5.28787,0.91171 4.92407,-0.99424 -0.13179,-0.69045 -1.72143,-2.25944 -3.53252,-3.48666 -4.29528,-2.91049 -5.35447,-5.17101 -3.65159,-7.79314 1.0003,-1.5403 1.90081,-1.95551 4.24108,-1.95551 3.88181,0 5.38422,0.63143 5.38422,2.26284 0,2.20235 -0.93614,2.45865 -2.73893,0.74991 -1.15839,-1.09798 -2.21967,-1.45498 -3.29837,-1.10955 -2.77613,0.88896 -1.98011,2.15949 3.74898,5.98373 3.40549,2.2732 4.06072,5.93448 1.39869,7.8157 -2.16034,1.52666 -6.72004,1.59265 -8.68997,0.12573 z m 44.97237,-1.51402 c -2.12609,-2.14507 -2.59344,-3.19908 -2.59344,-5.84887 0,-2.6498 0.46735,-3.70379 2.59344,-5.84887 2.05761,-2.07598 3.20452,-2.6166 5.55109,-2.6166 5.72386,0 9.40657,5.03093 7.87725,10.76111 -1.73247,6.49141 -8.69117,8.33272 -13.42834,3.55323 z m 7.87359,0.34177 c 2.10371,-1.97742 2.78087,-5.36125 1.8035,-9.01219 -1.05508,-3.9412 -3.3376,-5.40992 -5.83834,-3.75674 -2.20854,1.46001 -2.95087,4.04852 -2.38396,8.31286 0.27552,2.07253 1.03922,3.65923 2.19188,4.55393 2.22132,1.72422 2.29014,1.72263 4.22692,-0.0979 z m 21.52375,1.94356 c -0.0251,-0.24108 -0.067,-3.98805 -0.0931,-8.3266 l -0.0473,-7.88827 4.41874,-0.17747 c 4.21583,-0.16932 6.87752,0.77495 6.03971,2.14267 -0.21443,0.35004 -1.41632,0.27541 -2.67087,-0.16583 -3.34187,-1.17539 -4.69406,-0.37158 -4.40826,2.62047 0.2356,2.46662 0.74673,2.74797 3.67189,2.02116 0.72958,-0.18128 1.14417,0.27343 1.14417,1.25488 0,1.28405 -0.4232,1.49637 -2.55325,1.28092 l -2.55324,-0.25826 0.26492,3.7214 c 0.23982,3.36876 0.10221,3.74471 -1.45133,3.96733 -0.94394,0.13525 -1.73683,0.0487 -1.76202,-0.1924 z m 75.66842,-1.09904 c -1.03385,-1.04308 -1.56648,-3.15176 -1.96739,-7.7888 -0.57587,-6.66067 -0.14259,-8.06548 2.33891,-7.58332 1.24709,0.24231 1.37643,0.94544 1.15564,6.28313 -0.20184,4.87939 0.002,6.28969 1.08332,7.4952 1.54493,1.72239 3.21445,1.85778 5.10005,0.41362 1.09011,-0.83489 1.33486,-2.2415 1.33486,-7.67141 0,-5.27617 0.22694,-6.64905 1.09915,-6.64905 1.67291,0 1.76747,0.63984 1.13455,7.67764 -0.48187,5.35829 -0.88503,6.76703 -2.25744,7.88828 -2.23866,1.82895 -7.17963,1.79319 -9.02165,-0.0652 z m 27.352,0.48626 c 0,-0.58127 0.28841,-1.38588 0.64091,-1.788 0.35251,-0.40211 1.78804,-3.58819 3.19008,-7.08019 2.68406,-6.68509 4.03364,-7.73404 5.44585,-4.23273 1.79343,4.44641 3.13176,7.58316 4.15491,9.73808 1.5038,3.16728 1.32169,4.30688 -0.68823,4.30688 -1.3149,0 -1.9304,-0.62058 -2.47902,-2.49956 -0.76721,-2.62762 -2.25182,-3.34503 -5.31631,-2.56903 -1.24747,0.31589 -1.86979,1.09871 -2.03731,2.56273 -0.24682,2.15726 -2.91088,3.58665 -2.91088,1.56182 z m 7.74592,-7.93411 c -0.33484,-1.92257 -0.58913,-2.16888 -1.59298,-1.54292 -1.40878,0.87845 -0.97635,3.6414 0.52134,3.33092 0.84801,-0.17579 1.23886,-0.82792 1.07164,-1.788 z m 23.48209,8.49337 c -0.0252,-0.21164 -0.0664,-3.93453 -0.0916,-8.27308 -0.0449,-7.73005 -0.0106,-7.88827 1.70745,-7.88827 1.69518,0 1.75501,0.22921 1.80777,6.92628 l 0.0545,6.9263 3.4325,0.10296 c 4.84181,0.14518 4.86783,0.15497 3.81388,1.43626 -0.66243,0.8053 -2.42064,1.15439 -5.81422,1.15439 -2.67555,0 -4.88524,-0.17316 -4.91041,-0.38479 z m 27.4599,0.0536 c -0.0251,-0.24108 -0.0663,-3.98805 -0.0916,-8.3266 -0.0445,-7.67067 10e-4,-7.88826 1.66285,-7.88826 1.66089,0 1.70872,0.22567 1.71265,8.08066 0.004,7.65077 -0.0822,8.09376 -1.61709,8.32661 -0.89161,0.13524 -1.64171,0.0486 -1.66688,-0.19241 z m 23.6918,-7.07602 v -7.40728 l -2.34268,0.47273 c -1.94895,0.39327 -2.30007,0.24776 -2.0892,-0.86579 0.21211,-1.12006 1.27915,-1.37499 6.53794,-1.56203 5.89572,-0.2097 6.74304,0.0582 6.09377,1.92669 -0.10489,0.30183 -1.13463,0.44889 -2.28833,0.32679 l -2.09763,-0.22199 v 7.36909 c 0,7.34729 -0.005,7.36908 -1.90694,7.36908 -1.90198,0 -1.90693,-0.0193 -1.90693,-7.40729 z m 28.98545,4.14479 c 0,-2.48583 -0.70017,-4.54267 -2.66971,-7.84264 -1.46834,-2.4602 -2.66972,-4.77745 -2.66972,-5.14945 0,-1.30636 3.85386,-0.70205 4.27559,0.67044 0.70982,2.31003 2.43148,5.1416 3.30479,5.43531 0.45975,0.15461 1.53266,-1.3081 2.38427,-3.25048 1.41253,-3.22181 2.77315,-4.27611 3.96568,-3.07292 0.25005,0.25228 -0.8083,2.23229 -2.3519,4.40004 -2.34424,3.29216 -2.80651,4.57932 -2.80651,7.81438 0,3.43055 -0.19607,3.90113 -1.71624,4.11896 -1.5556,0.22288 -1.71625,-0.0696 -1.71625,-3.12364 z m -557.9556,-11.34374 c -1.25107,-1.39476 -1.26022,-1.56416 -0.1085,-2.01006 1.44181,-0.55822 3.52659,0.90375 3.52659,2.47304 0,1.54544 -1.84015,1.2962 -3.41809,-0.46298 z m -32.93488,-29.87618 c -1.19195,-1.32199 -7.14427,-8.63259 -13.2274,-16.24581 -6.08314,-7.61321 -11.31767,-13.86013 -11.63232,-13.88205 -0.31464,-0.022 -0.57209,5.96699 -0.57209,13.30865 0,14.1923 0.14006,14.75676 4.00456,16.13951 3.24131,1.15974 1.00381,2.06509 -5.1037,2.06509 -6.12756,0 -8.98963,-0.97536 -6.00488,-2.04638 4.00957,-1.43876 4.05292,-1.64481 4.05292,-19.26252 v -16.45281 l -2.66971,-1.58923 c -1.46834,-0.87408 -2.66971,-1.9139 -2.66971,-2.31069 0,-0.41456 3.16173,-0.62774 7.43326,-0.50117 l 7.43325,0.22027 8.52063,10.67078 c 4.68635,5.86893 8.90372,11.05727 9.3719,11.52966 0.62652,0.63212 0.79457,-1.77649 0.63647,-9.12254 l -0.21479,-9.98142 -2.09763,-1.01304 c -1.1537,-0.55718 -2.09764,-1.31205 -2.09764,-1.67749 0,-0.67745 10.27973,-1.46907 12.01371,-0.92516 1.52217,0.47747 1.10673,1.65289 -0.84944,2.40327 -0.9916,0.38038 -2.02134,1.26591 -2.28832,1.96787 -0.26699,0.70195 -0.49068,9.29976 -0.4971,19.10624 -0.006,9.8065 -0.31839,18.31881 -0.69324,18.91626 -0.54489,0.86845 -1.11618,0.60427 -2.84873,-1.31729 z m 69.62415,0.89421 c -2.6416,-0.81838 -3.96026,-0.91462 -4.53853,-0.33119 -0.44829,0.4523 -1.43293,0.82237 -2.18808,0.82237 -1.22579,0 -1.37298,-0.78383 -1.37298,-7.31108 0,-5.80853 0.22298,-7.31108 1.085,-7.31108 0.59676,0 1.48438,1.22089 1.97249,2.7131 1.09832,3.35765 4.05591,6.98365 6.91156,8.47355 5.18474,2.70509 11.38865,0.21731 11.38865,-4.56686 0,-3.12888 -1.61693,-4.66824 -9.36675,-8.91748 -9.03208,-4.95229 -11.99095,-8.49002 -11.99095,-14.33678 0,-3.28894 1.40626,-6.12248 4.52178,-9.1111 2.0125,-1.93054 3.11297,-2.32089 7.30144,-2.58998 3.39487,-0.2181 5.89052,0.0702 8.00824,0.9251 2.46974,0.99703 3.36805,1.05823 4.55499,0.31036 0.81318,-0.51238 1.64066,-0.76802 1.83884,-0.56807 0.7098,0.71614 1.09558,11.25815 0.45052,12.31119 -0.81469,1.32996 -1.14538,1.00426 -3.254,-3.20488 -2.10166,-4.19526 -5.88793,-6.83455 -9.80466,-6.83455 -5.34732,0 -7.85512,4.88957 -4.257,8.30005 0.95285,0.90313 4.78741,3.31465 8.52127,5.35895 8.05319,4.40913 11.10526,7.76224 11.67047,12.82154 1.1597,10.38071 -9.37591,16.78824 -21.4523,13.04684 z m 66.90559,0.5716 c -3.803,-0.99115 -9.16646,-4.48309 -11.37697,-7.4071 -2.88808,-3.82028 -4.05992,-7.70252 -4.09828,-13.57734 -0.0282,-4.32429 0.35661,-5.88774 2.45674,-9.98088 2.74859,-5.35701 7.79118,-9.84791 12.73601,-11.34265 4.17258,-1.2613 11.86291,-1.06594 16.53532,0.42007 3.79365,1.20651 4.14525,1.20641 5.46837,-0.002 0.77771,-0.7101 1.64361,-1.05948 1.9242,-0.77637 0.2806,0.28311 0.5102,3.4007 0.5102,6.92797 0,5.16187 -0.22127,6.41324 -1.13393,6.41324 -0.62366,0 -1.61306,-1.12553 -2.19866,-2.50117 -3.32379,-7.80792 -12.14912,-10.44706 -18.52571,-5.53995 -4.02252,3.09553 -5.86571,7.89282 -5.8985,15.3522 -0.0538,12.22911 4.27966,18.8549 12.33157,18.8549 4.36941,0 7.74267,-1.35353 10.97728,-4.40466 1.99303,-1.87999 3.68516,-1.84629 3.68516,0.0733 0,1.30547 -3.61032,4.62705 -6.79141,6.24828 -2.92784,1.49216 -12.80569,2.23102 -16.60139,1.24177 z m 45.87066,-0.0832 c -3.22999,-1.01092 -7.04765,-5.01117 -7.96599,-8.34698 -0.42537,-1.54512 -0.77532,-8.97251 -0.77766,-16.50529 l -0.004,-13.69598 -2.2835,-1.31098 c -1.25593,-0.72103 -2.28567,-1.57072 -2.28832,-1.88817 -0.004,-0.52782 13.04254,-0.96488 17.539,-0.58754 2.28842,0.19205 3.06703,0.84835 1.62089,1.36629 -0.57684,0.20658 -1.72351,1.05635 -2.54814,1.88835 -1.40639,1.41894 -1.48277,2.42674 -1.23208,16.25754 0.17389,9.59421 0.58753,15.31281 1.18413,16.37083 2.3288,4.1299 9.56935,4.29473 13.52317,0.30784 l 2.32608,-2.34556 v -15.17402 -15.17402 l -2.09763,-1.01585 c -3.60977,-1.74814 -2.32667,-2.47102 4.38596,-2.47102 6.54871,0 7.9636,0.70811 4.76734,2.38593 -0.94394,0.49549 -1.88786,1.05532 -2.09763,1.24406 -0.20977,0.18872 -0.55396,7.1829 -0.7649,15.54261 -0.3835,15.19864 -0.38363,15.19963 -2.51845,18.02353 -1.17421,1.55322 -3.23275,3.40163 -4.57452,4.10756 -2.8337,1.49086 -12.70382,2.11311 -16.19356,1.0209 z m 44.35542,-0.44034 c -2.6416,-0.85252 -3.96024,-0.96273 -4.53851,-0.3793 -0.4483,0.4523 -1.43294,0.82237 -2.18808,0.82237 -1.2258,0 -1.373,-0.78384 -1.373,-7.31109 0,-8.38379 1.17114,-9.71495 3.38998,-3.85313 2.28825,6.04522 8.09125,9.59676 13.88784,8.4996 2.0402,-0.38616 2.90209,-1.07145 3.67246,-2.92002 1.7705,-4.24839 0.23127,-6.25611 -8.46154,-11.03689 -9.77127,-5.3739 -13.52934,-10.70825 -12.11644,-17.19861 0.63175,-2.90203 3.62124,-6.62426 6.54565,-8.15003 2.80911,-1.46563 9.69165,-1.44203 13.21986,0.0453 2.12223,0.89463 3.15269,0.97096 4.35375,0.32243 0.86539,-0.46727 1.6682,-0.73497 1.78401,-0.59485 0.68734,0.83159 0.95007,11.29829 0.30701,12.23015 -0.43321,0.62771 -0.91021,0.77416 -1.10099,0.33799 -1.58071,-3.61385 -4.19713,-7.17408 -6.34594,-8.6351 -3.44827,-2.34453 -7.65197,-2.33309 -9.84939,0.0269 -3.51123,3.7709 -1.91794,6.02059 8.25757,11.65946 7.53773,4.17713 9.71849,6.02003 11.15854,9.42987 2.35782,5.583 0.70173,11.13862 -4.51764,15.1552 -3.41563,2.62849 -10.5984,3.32055 -16.08514,1.54978 z m 89.15424,0.54211 c -5.52604,-1.47583 -10.7014,-5.74606 -13.59498,-11.21735 -2.3757,-4.49201 -2.3776,-15.61023 -0.003,-20.04999 2.21284,-4.13813 6.74807,-8.42509 10.92869,-10.33043 3.94811,-1.79938 12.64262,-2.16032 16.85792,-0.69984 11.88227,4.11685 17.26697,15.80814 13.23601,28.73807 -1.5489,4.96835 -6.36698,10.43837 -10.9197,12.39726 -3.18038,1.36843 -13.11348,2.06793 -16.5045,1.16228 z m 11.70968,-4.35365 c 3.74964,-3.18331 5.08114,-7.90215 5.0078,-17.7479 -0.0537,-7.21571 -0.33105,-9.0922 -1.79436,-12.142 -4.23777,-8.83226 -14.04553,-7.6781 -17.3094,2.03693 -2.82399,8.40574 -1.17732,23.46433 2.98327,27.28157 3.42437,3.14177 7.81885,3.36773 11.11269,0.5714 z m 124.74927,4.34541 c -12.18269,-3.18915 -18.59857,-15.85729 -14.43555,-28.50293 1.51275,-4.59517 6.80578,-10.4889 11.46224,-12.76308 4.19817,-2.05035 14.27984,-2.51444 18.25149,-0.84015 3.61016,1.52189 5.69629,1.56245 6.24437,0.12142 0.23132,-0.60818 0.90705,-0.91744 1.50162,-0.68725 1.64209,0.63576 1.55917,13.33686 -0.0871,13.33686 -0.64246,0 -1.37972,-0.60605 -1.63837,-1.34679 -1.60283,-4.59042 -7.79444,-9.42741 -12.06765,-9.42741 -2.4984,0 -7.15327,2.3904 -9.22055,4.73503 -2.79954,3.17507 -3.74803,6.80346 -3.72152,14.23645 0.0426,11.98002 4.23805,17.96873 12.58786,17.96873 4.18515,0 7.58235,-1.38803 10.78038,-4.40466 2.02315,-1.90839 3.68516,-1.84123 3.68516,0.14893 0,1.21716 -3.75957,4.5595 -7.07354,6.28852 -2.6294,1.37186 -12.68594,2.07429 -16.26889,1.13637 z m 48.02445,-0.006 c -8.62812,-2.25222 -15.52872,-11.77044 -15.52872,-21.41926 0,-7.72533 4.95371,-16.03475 11.72522,-19.66807 2.60051,-1.39532 4.41087,-1.69128 10.39526,-1.69939 7.88421,-0.0107 11.69348,1.30865 16.28009,5.63864 6.36011,6.00423 8.12598,17.32774 4.02203,25.79087 -2.00125,4.12693 -6.07175,8.26733 -10.31711,10.49428 -2.21641,1.16264 -13.23184,1.73606 -16.57677,0.86293 z m 11.25761,-3.72317 c 1.22735,-0.73148 2.99656,-2.89594 3.93157,-4.80992 1.48531,-3.04039 1.69905,-4.69509 1.69222,-13.0998 -0.007,-8.40186 -0.21858,-10.01908 -1.67231,-12.77304 -1.98623,-3.76271 -4.65686,-5.69706 -7.86559,-5.69706 -3.60181,0 -6.6629,2.00451 -8.54472,5.59537 -1.48791,2.8392 -1.70804,4.43434 -1.72373,12.48995 -0.014,7.20177 0.29523,10.05423 1.40463,12.95575 2.30064,6.01712 7.79087,8.31101 12.77793,5.33876 z m 168.02653,-6.81033 c -4.99241,-6.19844 -10.62173,-13.29223 -12.5096,-15.76398 -1.88788,-2.47174 -3.86155,-4.51127 -4.38596,-4.53226 -0.72655,-0.0291 -0.95347,3.04724 -0.95347,12.92552 0,13.80055 0.14677,14.37177 4.05291,15.77342 2.91426,1.04571 0.18645,2.04638 -5.57846,2.04638 -6.23816,0 -8.39243,-0.99135 -4.99026,-2.29641 1.08158,-0.41489 2.30361,-1.64889 2.71561,-2.74222 0.412,-1.09332 0.73819,-8.63187 0.72484,-16.75233 -0.0254,-15.48315 -0.18662,-16.29509 -3.59892,-18.12897 -3.41522,-1.83547 -1.81071,-2.46594 5.70787,-2.24288 l 7.42412,0.22027 9.16623,11.54382 9.16624,11.54382 0.21617,-9.19025 c 0.11889,-5.05465 0.0418,-9.6485 -0.17115,-10.20859 -0.21301,-0.56009 -1.25422,-1.35089 -2.31379,-1.75733 -2.0073,-0.77 -2.62658,-2.27766 -0.97302,-2.36883 7.89162,-0.43517 10.63681,-0.30922 11.31829,0.51925 0.57034,0.69334 0.20519,1.22537 -1.36011,1.98173 l -2.13972,1.03396 -0.3814,19.55143 c -0.25782,13.21687 -0.6532,19.64263 -1.22034,19.83289 -0.46142,0.1548 -4.92366,-4.78999 -9.91608,-10.98843 z m 39.74049,10.54803 c -9.81342,-2.64193 -16.3481,-10.83809 -16.38291,-20.54835 -0.0332,-9.22918 4.42823,-16.60065 12.44347,-20.56038 3.59761,-1.7773 5.19807,-2.08715 10.7809,-2.08715 4.10208,0 7.5811,0.4321 9.29446,1.15438 3.44634,1.45284 4.65494,1.45143 6.10054,-0.007 0.63313,-0.6388 1.46675,-0.96467 1.85244,-0.72417 0.92346,0.57582 0.91058,13.20811 -0.014,13.78466 -0.39342,0.24531 -1.77583,-1.10913 -3.072,-3.00988 -3.66444,-5.37363 -7.0475,-7.59412 -12.11482,-7.95162 -5.22935,-0.36893 -8.64526,1.58909 -11.08218,6.35239 -1.93726,3.78666 -2.63796,15.56018 -1.28822,21.64535 1.52719,6.88515 7.70525,10.76034 14.46684,9.07432 2.58725,-0.64514 2.75949,-0.88319 2.9885,-4.13041 0.38066,-5.39713 -0.39284,-8.12928 -2.58704,-9.13795 -3.632,-1.66963 -1.11002,-2.42318 8.10985,-2.42318 9.37887,0 10.65215,0.48307 7.23222,2.7439 -1.68192,1.11187 -1.89899,1.84817 -2.09763,7.11475 l -0.22157,5.87453 -3.81388,1.43979 c -4.19682,1.58437 -16.73777,2.43449 -20.59492,1.39609 z m 36.70063,0.1175 c -0.72587,-0.73235 -0.55316,-14.6952 0.18749,-15.15704 0.36096,-0.22507 1.30489,1.04263 2.09763,2.81713 3.85399,8.62702 11.38204,12.35596 16.59396,8.21965 4.08518,-3.2421 2.07058,-7.93708 -4.94343,-11.52068 -10.08566,-5.15296 -14.40446,-9.92832 -14.40446,-15.9272 0,-3.6199 2.32693,-7.4691 6.04245,-9.99535 3.12887,-2.12737 9.81256,-2.38328 14.17832,-0.54286 2.03103,0.8562 3.1001,0.96804 3.67819,0.38479 1.81842,-1.83466 2.59011,-0.70265 3.06963,4.50294 0.76443,8.29837 -0.76288,10.3195 -3.29479,4.36004 -2.69295,-6.3385 -10.79536,-9.59569 -14.52051,-5.83728 -3.63819,3.67069 -1.23875,6.90538 9.17833,12.37334 3.33356,1.7498 7.07747,4.34947 8.3198,5.77705 5.57039,6.40098 3.19901,15.94911 -4.88078,19.65203 -3.79851,1.74083 -8.04706,1.81877 -13.30277,0.24406 -3.58621,-1.0745 -4.2006,-1.07877 -5.77184,-0.0401 -0.96711,0.63934 -1.96938,0.94959 -2.22722,0.68943 z M 1.6737086,198.10476 c -0.2340244,-0.38202 0.60384,-1.05665 1.8619218,-1.49914 l 2.28742,-0.80452 v -18.14438 -18.1444 l -1.906938,-0.73148 c -4.20833241,-1.6143 -1.7992109,-2.30876 8.0091386,-2.30876 9.335598,0 12.247002,0.70153 8.199832,1.97583 -2.582637,0.81317 -2.836045,1.64718 -2.848726,9.37558 l -0.01168,7.11869 h 6.401979 c 7.233117,0 7.333469,-0.0827 7.319577,-6.02725 -0.01522,-6.51102 -0.80821,-9.42325 -2.770949,-10.17614 -4.097411,-1.57176 -1.608234,-2.26671 8.118771,-2.26671 5.453842,0 9.913906,0.25973 9.911253,0.57719 -0.0026,0.31745 -1.032398,1.16714 -2.288325,1.88817 l -2.283498,1.31099 v 17.36282 17.36284 l 2.285586,1.40236 c 1.257072,0.7713 2.057987,1.63199 1.779808,1.91265 -0.773055,0.77996 -19.171362,0.60744 -19.656363,-0.18433 -0.234024,-0.38202 0.553164,-1.03883 1.749308,-1.45953 1.732585,-0.60936 2.27355,-1.36793 2.660414,-3.7305 0.685091,-4.18386 0.597539,-12.01218 -0.147598,-13.19728 -0.447831,-0.71223 -2.348913,-0.93183 -6.662603,-0.76958 l -6.035969,0.22704 v 8.07029 c 0,8.05879 0.0031,8.07176 2.112515,9.09186 1.161885,0.56184 1.913937,1.34572 1.671229,1.74193 -0.566284,0.92445 -19.1907206,0.94875 -19.7560994,0.0258 z m 51.1737264,0.16804 c -0.28706,-0.28963 0.495533,-1.58831 1.739097,-2.88595 1.311585,-1.36864 4.862474,-8.17629 8.456192,-16.21195 11.228801,-25.10793 10.591355,-23.8823 11.780336,-22.65032 0.584877,0.60602 4.691985,9.41342 9.126905,19.57197 5.341157,12.23436 8.71439,19.00478 9.991438,20.05382 1.060374,0.87104 1.690387,1.8234 1.400012,2.11637 -0.765247,0.77208 -18.414766,0.65587 -18.892733,-0.1244 -0.221367,-0.36138 0.444874,-1.04658 1.480534,-1.52268 2.207085,-1.0146 2.31839,-2.07842 0.656036,-6.27016 l -1.226985,-3.09393 h -7.100454 -7.100455 l -1.288493,3.40401 c -1.417793,3.74559 -1.124599,4.80749 1.617801,5.85947 3.560319,1.36572 1.898916,2.28034 -4.14223,2.28034 -3.286289,0 -6.209939,-0.23697 -6.497001,-0.52659 z m 22.388149,-15.26686 c 0,-1.1046 -4.565404,-10.36972 -5.100893,-10.35184 -0.594095,0.0198 -4.843899,8.98387 -4.824548,10.17634 0.0052,0.31746 2.240483,0.5772 4.967404,0.5772 2.726921,0 4.958037,-0.18077 4.958037,-0.4017 z m 27.133236,15.11317 c -0.2292,-0.37414 0.60867,-1.10879 1.86192,-1.63254 l 2.27863,-0.95226 v -18.03198 -18.03198 l -2.28833,-0.80485 c -4.454618,-1.56675 -2.16633,-2.19343 8.00914,-2.19343 10.17548,0 12.46375,0.62668 8.00914,2.19343 l -2.28833,0.80485 v 17.75186 17.75187 l 2.28559,1.40236 c 1.25707,0.7713 2.05799,1.63199 1.77981,1.91265 -0.76439,0.77121 -19.16857,0.612 -19.64757,-0.16998 z m 76.60418,-0.10836 c 0,-0.43375 0.80984,-1.09929 1.79966,-1.47898 2.47848,-0.95073 2.777,-3.12178 2.777,-20.19722 0,-14.48247 -0.46393,-17.55372 -2.65155,-17.55372 -1.1595,0 -2.32127,-1.39601 -1.69097,-2.03194 0.21278,-0.21469 7.69984,-0.35292 16.63789,-0.30719 11.84771,0.0606 16.41066,0.33668 16.84025,1.01875 1.25723,1.99619 0.46132,11.32502 -0.96622,11.32502 -0.35096,0 -1.29435,-1.49677 -2.09643,-3.32618 -1.8655,-4.25496 -5.3673,-6.08481 -11.01618,-5.75641 l -3.99656,0.23233 -0.22229,6.86538 c -0.27967,8.63762 -0.12416,9.08709 2.78953,8.06229 1.73843,-0.61142 2.63954,-1.74909 3.93386,-4.96658 0.9234,-2.29541 1.9837,-3.98341 2.35624,-3.75112 0.96363,0.60087 0.86529,20.90237 -0.10415,21.50687 -0.4373,0.2727 -1.47278,-1.1909 -2.351,-3.32301 -1.51498,-3.678 -4.439,-6.14045 -6.07792,-5.11849 -0.3881,0.24199 -0.70563,3.69735 -0.70563,7.67858 0,8.09146 0.46589,8.83191 5.55685,8.83191 5.63262,0 10.9094,-3.21317 12.78688,-7.78629 0.5009,-1.2201 1.41766,-2.21836 2.03725,-2.21836 0.93207,0 1.03147,0.83021 0.57585,4.80993 -1.03402,9.0321 0.71201,8.27307 -19.031,8.27307 -11.22236,0 -17.18133,-0.27352 -17.18133,-0.78864 z m 249.42746,0 c 0,-0.43375 0.82361,-1.10456 1.83025,-1.4907 1.72096,-0.66016 1.86345,-1.19333 2.38589,-8.92644 0.41737,-6.17821 0.21122,-21.5272 -0.37544,-27.95213 -0.0611,-0.66817 -6.27965,0.61618 -7.35885,1.51984 -0.64349,0.53882 -1.84457,2.31377 -2.66905,3.9443 -0.82447,1.63054 -1.82913,2.7588 -2.23258,2.50723 -0.89561,-0.55847 -0.98598,-10.12294 -0.10087,-10.67487 0.34797,-0.21697 8.62988,-0.44586 18.40424,-0.50863 14.1869,-0.0911 17.90717,0.0958 18.4438,0.92627 0.96007,1.48591 0.45828,9.32386 -0.61987,9.68245 -0.49309,0.164 -1.48331,-0.9494 -2.20049,-2.47425 -1.4816,-3.15014 -4.8066,-5.21879 -7.82318,-4.8672 l -2.04699,0.23859 v 17.69014 17.69015 l 2.11252,1.02156 c 1.16189,0.56184 1.91395,1.34571 1.67123,1.74193 -0.61659,1.00656 -19.42063,0.9405 -19.42063,-0.0682 z m 86.95636,0.0462 c 0,-0.40838 0.77231,-1.15287 1.71625,-1.6544 0.94393,-0.50152 1.96842,-1.29292 2.27664,-1.75865 0.30822,-0.46572 0.56039,-8.29254 0.56039,-17.39291 0,-9.10037 -0.25217,-16.93235 -0.56039,-17.40439 -0.30822,-0.47204 -1.33271,-1.10144 -2.27664,-1.39864 -1.99967,-0.62962 -2.25769,-1.75356 -0.48483,-2.1118 0.67728,-0.13686 4.4236,-0.13919 8.32515,-0.005 l 7.09373,0.24367 5.10571,12.06974 c 2.80812,6.63836 5.39915,12.38587 5.75783,12.77225 0.37755,0.4067 1.00602,-0.23653 1.49253,-1.52762 0.46222,-1.22657 1.31662,-3.27426 1.89867,-4.55044 0.58204,-1.27617 2.11839,-5.04857 3.4141,-8.3831 1.2957,-3.33453 2.86563,-7.05742 3.4887,-8.27306 l 1.13287,-2.2103 h 7.98955 c 4.39425,0 7.98739,0.25974 7.98473,0.5772 -0.003,0.31745 -1.0324,1.16713 -2.28833,1.88816 l -2.28351,1.31099 v 17.38732 17.38731 l 2.28351,1.31099 c 1.25593,0.72104 2.28568,1.57072 2.28833,1.88817 0.003,0.31746 -4.45742,0.57719 -9.91126,0.57719 -9.73104,0 -12.21624,-0.69494 -8.11341,-2.26877 0.99148,-0.38031 2.01653,-1.49727 2.27792,-2.48211 0.71807,-2.70557 0.59043,-28.34139 -0.1411,-28.34139 -0.53082,0 -7.74722,16.47586 -12.74114,29.08938 -0.84088,2.12391 -1.71927,3.22592 -2.45368,3.07836 -0.67964,-0.13656 -3.85553,-6.57158 -7.82498,-15.85501 -3.67458,-8.59383 -6.8916,-15.83757 -7.14894,-16.09721 -0.25732,-0.25962 -0.46787,6.15674 -0.46787,14.25862 v 14.73066 l 2.28833,1.19392 c 3.79522,1.98011 2.68402,2.69355 -4.19527,2.69355 -3.65626,0 -6.48359,-0.32379 -6.48359,-0.74251 z m 183.82881,-0.10872 c 0,-0.46817 0.84908,-1.52509 1.88685,-2.34868 2.11289,-1.67685 5.24319,-8.03395 14.15086,-28.73799 4.32726,-10.05784 5.27589,-11.56024 6.46758,-10.2432 0.5017,0.55449 3.7579,7.58812 7.23601,15.63031 9.0301,20.87968 9.90461,22.67823 11.52283,23.69783 0.79819,0.50294 1.45127,1.3506 1.45127,1.88368 0,0.72545 -2.30254,0.96927 -9.15329,0.96927 -5.03432,0 -9.15332,-0.30406 -9.15332,-0.67572 0,-0.37165 0.77154,-1.19256 1.71452,-1.82428 1.62335,-1.08749 1.65876,-1.30729 0.66588,-4.1342 -1.6795,-4.7819 -1.92344,-4.90962 -9.37768,-4.90962 h -6.81052 l -1.14674,2.76909 c -1.48465,3.58499 -1.14713,5.06609 1.4395,6.3169 1.15676,0.55938 1.90461,1.34122 1.6619,1.73743 -0.64387,1.0511 -12.55565,0.92697 -12.55565,-0.13082 z m 22.59616,-14.76394 c 0.1758,-0.17737 -0.54246,-2.19097 -1.59614,-4.47467 -1.05365,-2.2837 -1.9191,-4.58507 -1.9232,-5.11417 -0.004,-0.52909 -0.47083,-0.96198 -1.03718,-0.96198 -1.10281,0 -5.46415,9.51092 -4.8343,10.54235 0.37517,0.61435 8.7828,0.62193 9.39082,0.008 z m 31.2342,14.93489 c -0.22919,-0.37415 0.59455,-1.1029 1.83056,-1.61945 l 2.24728,-0.93915 0.22204,-14.34952 c 0.12213,-7.89223 0.1157,-16.03731 -0.0142,-18.10019 l -0.23634,-3.7507 -3.06466,0.41472 c -3.57683,0.48405 -5.70357,2.19397 -7.1885,5.77965 -0.58585,1.4147 -1.41565,2.35366 -1.84396,2.08657 -1.03575,-0.64584 -1.00458,-10.16774 0.0354,-10.81624 1.34532,-0.83887 36.07834,-0.37245 36.60762,0.49161 0.38308,0.62538 0.41203,6.94802 0.0428,9.35268 -0.22498,1.46531 -1.72028,0.30603 -3.08402,-2.39099 -1.60144,-3.16712 -4.76559,-5.0321 -7.80172,-4.5984 l -1.78867,0.2555 -0.20503,17.51064 -0.20501,17.51064 2.29991,1.41116 c 1.26496,0.77613 2.07231,1.64079 1.79413,1.92144 -0.76439,0.77121 -19.16856,0.612 -19.64756,-0.16997 z m 36.68835,0.16997 c -0.27817,-0.28065 0.52273,-1.14135 1.77981,-1.91265 l 2.28558,-1.40236 v -17.61847 -17.61846 l -2.28831,-0.95632 c -1.25858,-0.52598 -2.28833,-1.26063 -2.28833,-1.63254 0,-0.37192 4.46222,-0.67622 9.91607,-0.67622 9.81863,0 12.21766,0.6944 7.99505,2.31417 l -1.92104,0.7369 0.2048,17.89666 0.20478,17.89669 2.11252,1.02105 c 1.16188,0.56159 1.91394,1.34524 1.67123,1.74145 -0.49578,0.80935 -18.88358,1.00574 -19.67216,0.2101 z M 147.27823,130.09467 c -0.20522,-0.53956 -0.28025,-8.41822 -0.16676,-17.50813 l 0.20636,-16.527107 77.72054,-0.19606 c 56.79554,-0.143268 77.99945,0.03746 78.75652,0.671427 1.33337,1.116479 1.33899,4.85438 0.009,5.96805 -0.73745,0.6175 -21.86788,0.9153 -74.94265,1.05623 l -73.91609,0.19623 -0.21024,12.64311 c -0.12851,7.72801 -0.53549,13.0385 -1.04687,13.66018 -1.07002,1.30079 -5.91885,1.32808 -6.41025,0.0361 z m 164.02296,0.0636 c -0.20938,-0.55362 -0.29206,-29.75068 -0.18371,-64.882357 l 0.197,-63.8757833 163.02822,-0.1941651 163.0282,-0.1941659 0.42187,1.733341 c 0.23203,0.9533374 0.32459,8.6596313 0.20567,17.1250963 l -0.21622,15.391755 h -3.43247 -3.4325 L 630.53586,22.179011 630.15448,9.0960181 H 474.54835 318.94223 l -0.38138,60.7974329 -0.38139,60.797429 -3.24877,0.23699 c -2.15305,0.15707 -3.37718,-0.10255 -3.6295,-0.76959 z m 42.72837,0 c -0.20226,-0.5536 -0.45656,-6.72074 -0.5651,-13.70475 l -0.19735,-12.6982 -13.29281,-0.21116 c -8.22484,-0.13064 -13.67758,-0.53333 -14.30204,-1.05621 -1.32137,-1.10643 -1.2961,-4.845433 0.0403,-5.964462 0.73471,-0.615185 6.16881,-0.816589 18.11591,-0.671417 l 17.0664,0.207372 v 17.315727 17.31572 l -3.24877,0.23699 c -2.15748,0.15738 -3.37231,-0.10121 -3.61653,-0.76959 z m 234.29942,0.40433 c -0.27969,-0.28217 -0.50853,-20.19646 -0.50853,-44.25396 V 42.567743 l 106.97922,0.195068 106.97921,0.195069 v 43.866502 43.866498 h -3.43249 -3.4325 L 794.71641,90.479924 794.5189,50.268963 H 694.98355 595.44821 V 90.20519 c 0,35.70668 -0.12778,39.98569 -1.20655,40.40335 -1.61076,0.62364 -5.27729,0.59516 -5.91268,-0.046 z m 42.57326,-0.40433 c -0.21032,-0.55362 -0.29301,-17.28336 -0.18371,-37.177197 l 0.19872,-36.170625 h 3.4325 3.43247 v 36.940213 36.940199 l -3.24876,0.237 c -2.15246,0.15702 -3.37784,-0.10266 -3.63122,-0.76959 z"
       id="path1" />
  </g>
</svg>
